# xmcd CD database file generated by Grip 3.2.0
# 
# Track frame offsets:
#       150
#       25062
#       30922
#       57970
#       63705
#       75000
#       110450
#       117852
#       125170
#       130040
#       134822
#       147090
#       159410
#       167727
#       175870
#       181325
#       186790
#       198385
#       209770
#       216792
#       223755
#       228685
#       233535
#       246007
# 
# Disc length: 3442 seconds
# 
# Revision: 4
# Processed by: cddbd v1.5.1PL0 Copyright (c) Steve Scherf et al.
# Submitted via: Grip 3.2.0
# 
DISCID=5a0d7018
DTITLE=Jerry Portnoy - Blues Harmonica Masterclass - Disc 3
DYEAR=1997
DGENRE=Blues
TTITLE0=Breathing and Diaphragm Attack
TTITLE1=Positions
TTITLE2="Saints" - 5 positions
TTITLE3=Boogies - 3 positions
TTITLE4=Mics, Amps and Playing with a Band
TTITLE5=Closing Remarks
TTITLE6=E March with Harp
TTITLE7=E March
TTITLE8=E Shuffle with Harp
TTITLE9=E Shuffle
TTITLE10=E Blues with Harp
TTITLE11=E Blues
TTITLE12=A March with Harp
TTITLE13=A March
TTITLE14=A Shuffle with Harp
TTITLE15=A Shuffle
TTITLE16=A Blues with Harp
TTITLE17=A Blues
TTITLE18=B March with Harp
TTITLE19=B March
TTITLE20=B Shuffle with Harp
TTITLE21=B Shuffle
TTITLE22=B Minor Blues with Harp
TTITLE23=B Minor Blues
EXTD=
EXTT0=
EXTT1=
EXTT2=
EXTT3=
EXTT4=
EXTT5=
EXTT6=
EXTT7=
EXTT8=
EXTT9=
EXTT10=
EXTT11=
EXTT12=
EXTT13=
EXTT14=
EXTT15=
EXTT16=
EXTT17=
EXTT18=
EXTT19=
EXTT20=
EXTT21=
EXTT22=
EXTT23=
PLAYORDER=
